<mxfile host="www.draw.io" modified="2019-12-22T10:40:17.254Z" agent="Mozilla/5.0 (Windows NT 6.1; WOW64) AppleWebKit/537.36 (KHTML, like Gecko) Chrome/63.0.3239.132 Safari/537.36" etag="j2G7CCyecZQQE9DVVXFJ" version="12.4.3" type="github" pages="1">
  <diagram id="bVMOp88ZZxgZbFXAio9Z" name="第 1 页">
    <mxGraphModel dx="840" dy="480" grid="1" gridSize="10" guides="1" tooltips="1" connect="1" arrows="1" fold="1" page="1" pageScale="1" pageWidth="1169" pageHeight="827" math="0" shadow="0">
      <root>
        <mxCell id="0"/>
        <mxCell id="1" parent="0"/>
        <mxCell id="DMbiTjlrIZF-Xk5uuUKo-17" value="Central Idea" style="ellipse;whiteSpace=wrap;html=1;align=center;container=1;recursiveResize=0;treeFolding=1;treeMoving=1;" vertex="1" parent="1">
          <mxGeometry x="350" y="116" width="100" height="40" as="geometry"/>
        </mxCell>
        <mxCell id="DMbiTjlrIZF-Xk5uuUKo-18" value="管理者的困境" style="whiteSpace=wrap;html=1;rounded=1;arcSize=50;align=center;verticalAlign=middle;container=1;recursiveResize=0;strokeWidth=1;autosize=1;spacing=4;treeFolding=1;treeMoving=1;" vertex="1" parent="1">
          <mxGeometry x="491" y="89" width="110" height="30" as="geometry"/>
        </mxCell>
        <mxCell id="DMbiTjlrIZF-Xk5uuUKo-19" value="" style="edgeStyle=entityRelationEdgeStyle;startArrow=none;endArrow=none;segment=10;curved=1;exitX=1;exitY=0.5;exitDx=0;exitDy=0;" edge="1" target="DMbiTjlrIZF-Xk5uuUKo-18" parent="1" source="DMbiTjlrIZF-Xk5uuUKo-17">
          <mxGeometry relative="1" as="geometry">
            <mxPoint x="460" y="130" as="sourcePoint"/>
          </mxGeometry>
        </mxCell>
        <mxCell id="DMbiTjlrIZF-Xk5uuUKo-20" value="时间往往是属于别人的而非自己" style="whiteSpace=wrap;html=1;shape=partialRectangle;top=0;left=0;bottom=1;right=0;points=[[0,1],[1,1]];strokeColor=#000000;fillColor=none;align=center;verticalAlign=bottom;routingCenterY=0.5;snapToPoint=1;container=1;recursiveResize=0;autosize=1;treeFolding=1;treeMoving=1;" vertex="1" parent="1">
          <mxGeometry x="610" y="30" width="200" height="20" as="geometry"/>
        </mxCell>
        <mxCell id="DMbiTjlrIZF-Xk5uuUKo-21" value="" style="edgeStyle=entityRelationEdgeStyle;startArrow=none;endArrow=none;segment=10;curved=1;exitX=1;exitY=0.25;exitDx=0;exitDy=0;" edge="1" target="DMbiTjlrIZF-Xk5uuUKo-20" parent="1" source="DMbiTjlrIZF-Xk5uuUKo-18">
          <mxGeometry relative="1" as="geometry">
            <mxPoint x="590" y="89" as="sourcePoint"/>
          </mxGeometry>
        </mxCell>
        <mxCell id="DMbiTjlrIZF-Xk5uuUKo-29" style="edgeStyle=orthogonalEdgeStyle;curved=1;rounded=0;orthogonalLoop=1;jettySize=auto;html=1;exitX=1;exitY=1;exitDx=0;exitDy=0;entryX=0;entryY=1;entryDx=0;entryDy=0;" edge="1" parent="1" source="DMbiTjlrIZF-Xk5uuUKo-22" target="DMbiTjlrIZF-Xk5uuUKo-26">
          <mxGeometry relative="1" as="geometry"/>
        </mxCell>
        <mxCell id="DMbiTjlrIZF-Xk5uuUKo-22" value="被迫忙于“日常运作”，除非改变周边环境" style="whiteSpace=wrap;html=1;shape=partialRectangle;top=0;left=0;bottom=1;right=0;points=[[0,1],[1,1]];strokeColor=#000000;fillColor=none;align=center;verticalAlign=bottom;routingCenterY=0.5;snapToPoint=1;container=1;recursiveResize=0;autosize=1;treeFolding=1;treeMoving=1;" vertex="1" parent="1">
          <mxGeometry x="650" y="80" width="240" height="20" as="geometry"/>
        </mxCell>
        <mxCell id="DMbiTjlrIZF-Xk5uuUKo-26" value="难以找到一套判断标准来抓住重点" style="whiteSpace=wrap;html=1;shape=partialRectangle;top=0;left=0;bottom=1;right=0;points=[[0,1],[1,1]];strokeColor=#000000;fillColor=none;align=center;verticalAlign=bottom;routingCenterY=0.5;snapToPoint=1;container=1;recursiveResize=0;autosize=1;treeFolding=1;treeMoving=1;" vertex="1" parent="1">
          <mxGeometry x="920" y="80" width="210" height="20" as="geometry"/>
        </mxCell>
        <mxCell id="DMbiTjlrIZF-Xk5uuUKo-23" value="" style="edgeStyle=entityRelationEdgeStyle;startArrow=none;endArrow=none;segment=10;curved=1;exitX=1;exitY=0.5;exitDx=0;exitDy=0;" edge="1" target="DMbiTjlrIZF-Xk5uuUKo-22" parent="1" source="DMbiTjlrIZF-Xk5uuUKo-18">
          <mxGeometry relative="1" as="geometry">
            <mxPoint x="650" y="159" as="sourcePoint"/>
          </mxGeometry>
        </mxCell>
        <mxCell id="DMbiTjlrIZF-Xk5uuUKo-30" value="身处“组织”中，一个人的贡献难以有效传递" style="whiteSpace=wrap;html=1;shape=partialRectangle;top=0;left=0;bottom=1;right=0;points=[[0,1],[1,1]];strokeColor=#000000;fillColor=none;align=center;verticalAlign=bottom;routingCenterY=0.5;snapToPoint=1;container=1;recursiveResize=0;autosize=1;treeFolding=1;treeMoving=1;" vertex="1" parent="1">
          <mxGeometry x="820" y="150" width="260" height="20" as="geometry"/>
        </mxCell>
        <mxCell id="DMbiTjlrIZF-Xk5uuUKo-31" value="" style="edgeStyle=entityRelationEdgeStyle;startArrow=none;endArrow=none;segment=10;curved=1;exitX=1;exitY=0.75;exitDx=0;exitDy=0;" edge="1" target="DMbiTjlrIZF-Xk5uuUKo-30" parent="1" source="DMbiTjlrIZF-Xk5uuUKo-18">
          <mxGeometry relative="1" as="geometry">
            <mxPoint x="780" y="210" as="sourcePoint"/>
          </mxGeometry>
        </mxCell>
      </root>
    </mxGraphModel>
  </diagram>
</mxfile>
